<svg xmlns="http://www.w3.org/2000/svg" width="900" height="520" viewBox="0 0 900 520" role="img" aria-label="Instalações e Adequações">
<defs><linearGradient id="g" x1="0" y1="0" x2="1" y2="1"><stop offset="0" stop-color="#4c1d95"/><stop offset="1" stop-color="#facc15"/></linearGradient><radialGradient id="r" cx="78%" cy="20%" r="70%"><stop offset="0" stop-color="#fff" stop-opacity=".28"/><stop offset="1" stop-color="#fff" stop-opacity="0"/></radialGradient><filter id="s" x="-20%" y="-20%" width="140%" height="140%"><feDropShadow dx="0" dy="16" stdDeviation="16" flood-color="#000" flood-opacity=".25"/></filter><pattern id="grid" width="42" height="42" patternUnits="userSpaceOnUse"><path d="M42 0L0 0 0 42" fill="none" stroke="#fff" stroke-opacity=".12" stroke-width="1"/></pattern></defs>
<rect width="900" height="520" rx="34" fill="url(#g)"/><rect width="900" height="520" rx="34" fill="url(#grid)"/><rect width="900" height="520" rx="34" fill="url(#r)"/><path d="M-40 420C160 330 250 470 430 370C610 270 700 350 960 235L960 560L-40 560Z" fill="#000" opacity=".13"/>
<g filter="url(#s)"><rect x="122" y="116" width="656" height="288" rx="30" fill="#fff" opacity=".94"/><rect x="162" y="154" width="270" height="178" rx="22" fill="#f4f7fb" stroke="#dbe7f3" stroke-width="4"/><rect x="470" y="154" width="246" height="178" rx="22" fill="#f8fafc" stroke="#dbe7f3" stroke-width="4"/><circle cx="297" cy="243" r="58" fill="#4c1d95" opacity=".13"/><text x="297" y="266" text-anchor="middle" font-size="78" font-family="Arial" fill="#4c1d95" font-weight="700">⚡</text><path d="M510 202H676M510 246H650M510 290H620" stroke="#4c1d95" stroke-width="18" stroke-linecap="round" opacity=".55"/><rect x="204" y="354" width="492" height="26" rx="13" fill="#0f172a" opacity=".10"/></g>
<text x="56" y="70" font-family="Arial" font-size="25" font-weight="800" fill="#fff" opacity=".92">SULFLEX</text><text x="56" y="102" font-family="Arial" font-size="15" font-weight="700" fill="#fff" opacity=".70" letter-spacing="3">CATÁLOGO INDUSTRIAL</text><rect x="56" y="420" width="360" height="56" rx="28" fill="#fff" opacity=".18" stroke="#fff" stroke-opacity=".28"/><text x="86" y="456" font-family="Arial" font-size="22" font-weight="800" fill="#fff">ELÉTRICA</text></svg>