<svg xmlns="http://www.w3.org/2000/svg" width="900" height="620" viewBox="0 0 900 620"><defs><linearGradient id="g" x1="0" y1="0" x2="1" y2="1"><stop offset="0" stop-color="#6d28d9"/><stop offset="1" stop-color="#fde047"/></linearGradient><pattern id="p" width="44" height="44" patternUnits="userSpaceOnUse"><path d="M44 0L0 0 0 44" fill="none" stroke="#fff" stroke-opacity=".12"/></pattern><filter id="s"><feDropShadow dx="0" dy="18" stdDeviation="18" flood-color="#000" flood-opacity=".25"/></filter></defs><rect width="900" height="620" rx="36" fill="url(#g)"/><rect width="900" height="620" rx="36" fill="url(#p)"/><path d="M-40 496C190 385 320 540 500 410C690 275 780 380 960 260L960 660L-40 660Z" fill="#000" opacity=".13"/><g filter="url(#s)"><rect x="126" y="138" width="648" height="314" rx="34" fill="#fff" opacity=".94"/><rect x="170" y="188" width="262" height="184" rx="22" fill="#f5f8fc" stroke="#dbe7f3" stroke-width="4"/><circle cx="301" cy="280" r="64" fill="#6d28d9" opacity=".13"/><text x="301" y="306" text-anchor="middle" font-size="82" font-family="Arial" fill="#6d28d9" font-weight="800">✦</text><path d="M500 220H682M500 274H646M500 328H704" stroke="#6d28d9" stroke-width="18" stroke-linecap="round" opacity=".55"/><rect x="210" y="394" width="480" height="28" rx="14" fill="#0f172a" opacity=".10"/></g><text x="54" y="74" font-family="Arial" font-size="25" font-weight="900" fill="#fff">SULFLEX</text><text x="54" y="106" font-family="Arial" font-size="15" font-weight="700" fill="#fff" opacity=".72" letter-spacing="3">LOJA CORPORATIVA</text><rect x="54" y="504" width="420" height="58" rx="29" fill="#fff" opacity=".18" stroke="#fff" stroke-opacity=".28"/><text x="84" y="542" font-family="Arial" font-size="21" font-weight="900" fill="#fff">SOB CONSULTA</text></svg>