<svg xmlns="http://www.w3.org/2000/svg" width="900" height="650" viewBox="0 0 900 650"><defs><linearGradient id="g" x1="0" y1="0" x2="1" y2="1"><stop offset="0" stop-color="#7c1d1d"/><stop offset="1" stop-color="#f97316"/></linearGradient><pattern id="grid" width="42" height="42" patternUnits="userSpaceOnUse"><path d="M42 0L0 0 0 42" fill="none" stroke="#fff" stroke-opacity=".12"/></pattern><filter id="s"><feDropShadow dx="0" dy="18" stdDeviation="18" flood-color="#000" flood-opacity=".25"/></filter></defs><rect width="900" height="650" rx="30" fill="url(#g)"/><rect width="900" height="650" rx="30" fill="url(#grid)"/><path d="M0 510C190 400 335 560 515 425C700 285 790 380 920 280L920 680H0Z" fill="#000" opacity=".14"/><g filter="url(#s)"><rect x="120" y="140" width="660" height="340" rx="34" fill="#fff" opacity=".96"/><rect x="165" y="195" width="275" height="195" rx="24" fill="#f4f7fb" stroke="#dbe7f3" stroke-width="4"/><circle cx="302" cy="292" r="70" fill="#7c1d1d" opacity=".13"/><text x="302" y="320" text-anchor="middle" font-family="Arial" font-size="86" font-weight="900" fill="#7c1d1d">⚡</text><path d="M515 228H695M515 286H655M515 344H710" stroke="#7c1d1d" stroke-width="20" stroke-linecap="round" opacity=".55"/><rect x="205" y="420" width="490" height="30" rx="15" fill="#0f172a" opacity=".10"/></g><text x="54" y="78" font-family="Arial" font-size="26" font-weight="900" fill="#fff">SULFLEX</text><text x="54" y="112" font-family="Arial" font-size="15" font-weight="700" fill="#fff" opacity=".75" letter-spacing="3">CATÁLOGO SEM VALORES</text><rect x="54" y="536" width="390" height="58" rx="29" fill="#fff" opacity=".18" stroke="#fff" stroke-opacity=".28"/><text x="84" y="574" font-family="Arial" font-size="21" font-weight="900" fill="#fff">COTAÇÃO POR PDF</text></svg>